<svg xmlns="http://www.w3.org/2000/svg" viewBox="0 9.470000267028809 143.67999267578125 45.72999954223633" data-asc="0.9052734375"><g fill="#ff5630"><g fill="#ff5630" transform="translate(0, 0)"><path d="M0 37.52L4.35 36.84Q4.71 39.45 6.38 40.84Q8.06 42.24 11.06 42.24Q14.09 42.24 15.55 41.00Q17.02 39.77 17.02 38.11Q17.02 36.62 15.72 35.77Q14.82 35.18 11.23 34.28Q6.40 33.06 4.53 32.17Q2.66 31.27 1.70 29.70Q0.73 28.13 0.73 26.22Q0.73 24.49 1.53 23.01Q2.32 21.53 3.69 20.56Q4.71 19.80 6.48 19.27Q8.25 18.75 10.28 18.75Q13.33 18.75 15.64 19.63Q17.94 20.51 19.04 22.01Q20.14 23.51 20.56 26.03L16.26 26.61Q15.97 24.61 14.56 23.49Q13.16 22.36 10.60 22.36Q7.57 22.36 6.27 23.36Q4.98 24.37 4.98 25.71Q4.98 26.56 5.52 27.25Q6.05 27.95 7.20 28.42Q7.86 28.66 11.08 29.54Q15.75 30.79 17.59 31.58Q19.43 32.37 20.48 33.89Q21.53 35.40 21.53 37.65Q21.53 39.84 20.25 41.78Q18.97 43.73 16.55 44.79Q14.14 45.85 11.08 45.85Q6.03 45.85 3.38 43.75Q0.73 41.65 0 37.52ZM26.76 45.26L26.76 9.47L31.15 9.47L31.15 22.31Q34.23 18.75 38.92 18.75Q41.80 18.75 43.92 19.89Q46.04 21.02 46.96 23.02Q47.88 25.02 47.88 28.83L47.88 45.26L43.48 45.26L43.48 28.83Q43.48 25.54 42.05 24.04Q40.63 22.53 38.01 22.53Q36.06 22.53 34.34 23.55Q32.62 24.56 31.88 26.29Q31.15 28.03 31.15 31.08L31.15 45.26L26.76 45.26ZM52.93 32.30Q52.93 25.10 56.93 21.63Q60.28 18.75 65.09 18.75Q70.43 18.75 73.83 22.25Q77.22 25.76 77.22 31.93Q77.22 36.94 75.72 39.81Q74.22 42.68 71.35 44.26Q68.48 45.85 65.09 45.85Q59.64 45.85 56.29 42.36Q52.93 38.87 52.93 32.30M57.45 32.30Q57.45 37.28 59.62 39.76Q61.79 42.24 65.09 42.24Q68.36 42.24 70.53 39.75Q72.71 37.26 72.71 32.15Q72.71 27.34 70.52 24.87Q68.33 22.39 65.09 22.39Q61.79 22.39 59.62 24.85Q57.45 27.32 57.45 32.30ZM82.37 55.20L82.37 19.34L86.38 19.34L86.38 22.71Q87.79 20.73 89.58 19.74Q91.36 18.75 93.90 18.75Q97.22 18.75 99.76 20.46Q102.29 22.17 103.59 25.28Q104.88 28.39 104.88 32.10Q104.88 36.08 103.45 39.27Q102.03 42.46 99.30 44.15Q96.58 45.85 93.58 45.85Q91.38 45.85 89.64 44.92Q87.89 43.99 86.77 42.58L86.77 55.20L82.37 55.20M86.35 32.45Q86.35 37.45 88.38 39.84Q90.41 42.24 93.29 42.24Q96.22 42.24 98.30 39.76Q100.39 37.28 100.39 32.08Q100.39 27.12 98.35 24.66Q96.31 22.19 93.48 22.19Q90.67 22.19 88.51 24.82Q86.35 27.44 86.35 32.45ZM110.08 45.26L110.08 9.47L114.48 9.47L114.48 45.26L110.08 45.26ZM138.21 42.07Q135.77 44.14 133.51 45.00Q131.25 45.85 128.66 45.85Q124.39 45.85 122.09 43.76Q119.80 41.67 119.80 38.43Q119.80 36.52 120.67 34.95Q121.53 33.37 122.94 32.42Q124.34 31.47 126.10 30.98Q127.39 30.64 130.00 30.32Q135.33 29.69 137.84 28.81Q137.87 27.91 137.87 27.66Q137.87 24.98 136.62 23.88Q134.94 22.39 131.62 22.39Q128.52 22.39 127.04 23.47Q125.56 24.56 124.85 27.32L120.56 26.73Q121.14 23.97 122.49 22.28Q123.83 20.58 126.37 19.67Q128.91 18.75 132.25 18.75Q135.57 18.75 137.65 19.53Q139.72 20.31 140.70 21.50Q141.67 22.68 142.07 24.49Q142.29 25.61 142.29 28.54L142.29 34.40Q142.29 40.53 142.57 42.15Q142.85 43.77 143.68 45.26L139.09 45.26Q138.40 43.90 138.21 42.07M137.84 32.25Q135.45 33.23 130.66 33.91Q127.95 34.30 126.83 34.79Q125.71 35.28 125.10 36.22Q124.49 37.16 124.49 38.31Q124.49 40.06 125.82 41.24Q127.15 42.41 129.71 42.41Q132.25 42.41 134.23 41.30Q136.21 40.19 137.13 38.26Q137.84 36.77 137.84 33.86L137.84 32.25Z"/></g></g></svg>